<svg xmlns="http://www.w3.org/2000/svg" viewBox="0 0 32 32" fill="none">
  <rect width="32" height="32" rx="7" fill="#1677ff"/>
  <path d="M8 16a2 2 0 0 1 2-2h12a2 2 0 0 1 2 2v6a2 2 0 0 1-2 2H10a2 2 0 0 1-2-2v-6Z" fill="#fff" fill-opacity=".9"/>
  <circle cx="12" cy="17" r="1.5" fill="#1677ff"/>
  <circle cx="20" cy="17" r="1.5" fill="#1677ff"/>
  <path d="M12 11a2 2 0 0 1 2-2h4a2 2 0 0 1 2 2v3h-8v-3Z" fill="#fff" fill-opacity=".6"/>
  <rect x="13" y="21" width="2" height="3" rx="1" fill="#1677ff"/>
  <rect x="17" y="21" width="2" height="3" rx="1" fill="#1677ff"/>
</svg>
